<!DOCTYPE svg PUBLIC "-//W3C//DTD SVG 1.1//EN" "http://www.w3.org/Graphics/SVG/1.1/DTD/svg11.dtd">
<!-- Uploaded to: SVG Repo, www.svgrepo.com, Transformed by: SVG Repo Mixer Tools -->
<svg fill="#ffffff" height="800px" width="800px" version="1.1" id="Layer_1" xmlns="http://www.w3.org/2000/svg" xmlns:xlink="http://www.w3.org/1999/xlink" viewBox="0 0 512 512" xml:space="preserve" stroke="#ffffff">
<g id="SVGRepo_bgCarrier" stroke-width="0"/>
<g id="SVGRepo_tracerCarrier" stroke-linecap="round" stroke-linejoin="round"/>
<g id="SVGRepo_iconCarrier"> <g> <g> <path d="M478.028,275.592c-5.635-89.094-65.281-165.655-150.312-192.802c-3.118-24.645-23.976-43.833-49.455-43.833h-44.522 c-25.479,0-46.337,19.188-49.455,43.833C99.253,109.936,39.608,186.498,33.972,275.592C14.281,282.342,0,300.832,0,322.783 c0,23.229,15.968,42.633,37.451,48.273l14.967,44.911c11.381,34.137,43.207,57.077,79.196,57.077h248.772 c35.989,0,67.816-22.94,79.201-57.081l14.963-44.906C496.032,365.416,512,346.011,512,322.783 C512,300.832,497.719,282.342,478.028,275.592z M217.043,89.044c0-9.206,7.49-16.696,16.696-16.696h44.522 c9.206,0,16.696,7.49,16.696,16.696v183.652h-77.913V89.044z M461.913,339.478H50.087c-9.206,0-16.696-7.49-16.696-16.696 c0-9.206,7.49-16.696,16.696-16.696c145.845,0,264.291,0,411.826,0c9.206,0,16.696,7.49,16.696,16.696 C478.609,331.989,471.119,339.478,461.913,339.478z"/> </g> </g> </g>
</svg>