<svg version="1.1" id="Layer_1" xmlns="http://www.w3.org/2000/svg" xmlns:xlink="http://www.w3.org/1999/xlink" x="0px" y="0px" viewBox="0 0 500 500" style="width: 151px;" xml:space="preserve" data-imageid="network-41" imageName="Network" class="illustrations_image">
<style type="text/css">
	.st0_network-41{fill:#FFFFFF;}
	.st1_network-41{fill:#093F68;}
	.st2_network-41{fill:#68E1FD;}
	.st3_network-41{fill:#725858;}
	.st4_network-41{fill:#FFC9B0;}
</style>
<g id="character-3_network-41">
	<path class="st0_network-41" d="M452,342.7c0,30.8-17.8,58.9-45.6,72.1c-4.7,2.3-9.7,4-14.8,5.3c-42.7,10.7-86-15.3-96.7-58.1&#10;&#9;&#9;c-10.7-42.7,15.3-86,58.1-96.7c42.7-10.7,86,15.3,96.7,58.1C451.2,329.7,452,336.2,452,342.7z"/>
	<path class="st1_network-41" d="M372.2,424.3c-6.6,0-13.1-0.8-19.5-2.3c-5.2-1.3-10.3-3.1-15.2-5.4c-40.8-19.1-58.4-67.7-39.3-108.5&#10;&#9;&#9;s67.7-58.4,108.5-39.3s58.4,67.7,39.3,108.5c-8.1,17.2-21.8,31-39,39.2c-4.8,2.3-9.9,4.1-15.1,5.4&#10;&#9;&#9;C385.5,423.5,378.9,424.3,372.2,424.3z M372.2,264.8c-43,0-77.9,34.9-77.9,77.9c0,30.2,17.5,57.7,44.8,70.5&#10;&#9;&#9;c4.6,2.2,9.5,3.9,14.5,5.1c12.3,3,25.1,3,37.4-0.1c5-1.2,9.8-3,14.5-5.2c38.9-18.4,55.5-64.8,37.1-103.7&#10;&#9;&#9;C429.8,282.2,402.4,264.8,372.2,264.8L372.2,264.8z"/>
	<path class="st2_network-41 targetColor" d="M406.3,401.1v13.7c-4.7,2.3-9.7,4-14.8,5.3c-17.8,4.4-36.5,2.6-53.1-5.1v-13.8c0-12.7,10.3-23,23-23l0,0h22&#10;&#9;&#9;C396,378.1,406.3,388.4,406.3,401.1z" style="fill: rgb(234, 99, 69);"/>
	<path class="st1_network-41" d="M372.2,424.3c-6.6,0-13.1-0.8-19.5-2.3c-5.2-1.3-10.3-3.1-15.2-5.4c-0.7-0.3-1.1-1-1.1-1.7v-13.9&#10;&#9;&#9;c0-13.7,11.1-24.8,24.9-24.8h22c13.7,0,24.8,11.1,24.8,24.8v13.7c0,0.7-0.4,1.4-1.1,1.7c-4.8,2.3-9.9,4.1-15.1,5.4&#10;&#9;&#9;C385.5,423.5,378.9,424.3,372.2,424.3z M340.2,413.8c4.3,1.9,8.8,3.5,13.4,4.6c12.3,3,25.1,3,37.4-0.1c4.6-1.1,9.1-2.7,13.4-4.7&#10;&#9;&#9;v-12.5c0-11.6-9.5-21.1-21.1-21.1h-21.9c-11.7,0-21.1,9.5-21.1,21.1L340.2,413.8z M406.3,414.8L406.3,414.8z"/>
	<path class="st3_network-41" d="M369.5,284.5c1.4-0.2,2.9-0.3,4.3-0.3c6.6,0,13.4-0.2,19.5,2.8c12.5,6.2,20.4,18.9,20.5,32.8l-1.4,27.2h-79.6&#10;&#9;&#9;c-0.5-1.6,0.3-3.5,0.3-5.1c-0.1-1.8-0.3-3.5-0.8-5.2c-0.9-4.4-1.5-9-1.6-13.5c0-7.1,1.5-14.2,4.4-20.7c1.6-3.9,3.5-8,7-10.5&#10;&#9;&#9;s9-2.5,11.5,0.9C357.8,288.4,363.4,285.5,369.5,284.5z"/>
	<path class="st1_network-41" d="M412.4,348.9h-76.2c-4.5,0-5.2,0-5.3-1.6c-0.2-1.3-0.2-2.6,0.1-3.9c0.1-0.5,0.2-1,0.2-1.5&#10;&#9;&#9;c0-1.2-0.2-2.4-0.5-3.6c-0.1-0.4-0.2-0.8-0.2-1.2c-1-4.5-1.5-9.2-1.6-13.8c0-7.4,1.5-14.7,4.5-21.5c1.6-4,3.7-8.5,7.6-11.3&#10;&#9;&#9;c3.5-2.5,9.1-3,12.5-0.2c4.3-4,9.8-6.7,15.6-7.6l0,0c1.5-0.2,3.1-0.3,4.6-0.4h1.2c6.4,0,13,0,19.1,3c13.1,6.5,21.5,19.8,21.5,34.5&#10;&#9;&#9;c0,0.1,0,0.1-1.4,27.3C414.2,348.1,413.4,348.9,412.4,348.9z M334.5,345.1h76.1c0.3-6,1.3-25.2,1.3-25.4&#10;&#9;&#9;c-0.1-13.2-7.6-25.2-19.5-31.1c-5.3-2.6-11.2-2.6-17.4-2.6h-1.2c-1.3,0-2.7,0.1-4,0.3l0,0c-5.7,0.9-10.9,3.6-14.9,7.8&#10;&#9;&#9;c-0.4,0.4-0.9,0.6-1.5,0.6c-0.6,0-1.1-0.3-1.5-0.7c-1.8-2.6-6.2-2.4-8.9-0.5c-3.1,2.2-4.8,6-6.4,9.7c-2.8,6.3-4.2,13.1-4.2,20&#10;&#9;&#9;c0.1,4.4,0.6,8.8,1.6,13.1l0.2,1.1c0.4,1.5,0.6,3,0.6,4.6c0,0.7-0.1,1.3-0.2,2C334.6,344.4,334.5,344.8,334.5,345.1z M369.5,284.5&#10;&#9;&#9;L369.5,284.5z"/>
	<path class="st4_network-41" d="M366.9,373.7h11.6l0,0v8.9c0,1.5-1.2,2.6-2.6,2.6h0h-6.3c-1.5,0-2.6-1.2-2.6-2.6v0L366.9,373.7L366.9,373.7z"/>
	<path class="st1_network-41" d="M373.5,387.1h-1.7c-3.7,0-6.8-3-6.8-6.8v-6.6c0-1,0.8-1.9,1.9-1.9h11.6c1,0,1.9,0.8,1.9,1.8c0,0,0,0,0,0v6.6&#10;&#9;&#9;C380.3,384.1,377.3,387.1,373.5,387.1C373.5,387.1,373.5,387.1,373.5,387.1z M368.7,375.6v4.8c0,1.7,1.4,3,3,3h1.7c1.7,0,3-1.4,3-3&#10;&#9;&#9;v-4.8H368.7z"/>
	<ellipse class="st4_network-41" cx="341.5" cy="343.7" rx="10.6" ry="9.7"/>
	<path class="st1_network-41" d="M341.5,355.2c-6.9,0-12.4-5.2-12.4-11.5s5.6-11.5,12.4-11.5s12.5,5.2,12.5,11.5S348.4,355.2,341.5,355.2z&#10;&#9;&#9; M341.5,335.9c-4.8,0-8.7,3.5-8.7,7.8s3.9,7.8,8.7,7.8s8.7-3.5,8.7-7.8S346.4,335.9,341.5,335.9z"/>
	<ellipse class="st4_network-41" cx="403.2" cy="343.7" rx="10.6" ry="9.7"/>
	<path class="st1_network-41" d="M403.2,355.2c-6.9,0-12.4-5.2-12.4-11.5s5.6-11.5,12.4-11.5s12.4,5.2,12.4,11.5S410,355.2,403.2,355.2z&#10;&#9;&#9; M403.2,335.9c-4.8,0-8.7,3.5-8.7,7.8s3.9,7.8,8.7,7.8s8.7-3.5,8.7-7.8S408,335.9,403.2,335.9z"/>
	<path class="st4_network-41" d="M372.7,375.2L372.7,375.2c-18.7,0-33.9-15.2-33.9-33.9l0,0v-18.2c0,0,8.5-4.9,11-12.5c0,0,13,14.8,25.6,13.8&#10;&#9;&#9;c10.4-0.9,20.8-2.3,31.1-4.3v21.3C406.5,360.1,391.4,375.2,372.7,375.2z"/>
	<path class="st1_network-41" d="M372.7,377.1c-19.7,0-35.7-16-35.7-35.7v-18.2c0-0.7,0.4-1.3,0.9-1.6c0.1,0,8-4.6,10.2-11.5&#10;&#9;&#9;c0.3-1,1.4-1.5,2.3-1.2c0.3,0.1,0.6,0.3,0.8,0.5c0.1,0.1,12.6,14.1,24,13.2c10.4-0.9,20.7-2.3,30.9-4.3c0.5-0.1,1.1,0,1.5,0.4&#10;&#9;&#9;c0.4,0.4,0.7,0.9,0.7,1.4v21.3C408.3,361.1,392.4,377.1,372.7,377.1z M340.7,324.2v17.2c0,17.7,14.3,32,32,32s32-14.3,32-32v-19&#10;&#9;&#9;c-4.8,0.9-16.6,2.9-29.1,3.9c-10.5,0.8-20.9-8.1-25.1-12.3C347.7,319.2,342.7,322.8,340.7,324.2L340.7,324.2z"/>
	<path class="st1_network-41" d="M372.5,348.9c-1.1,0-2.1-0.1-3.2-0.3c-1-0.2-1.7-1.1-1.5-2.2c0.2-1,1.1-1.7,2.1-1.5c0,0,0,0,0,0&#10;&#9;&#9;c1.2,0.2,2.4,0.3,3.6,0.2c-0.6-2.2-1.4-4.3-2.5-6.2c-0.5-0.9-0.1-2,0.8-2.5c0.9-0.5,2-0.1,2.5,0.8c1.8,3.4,3.6,7.8,2.7,10&#10;&#9;&#9;c-0.3,0.7-0.9,1.3-1.7,1.5C374.3,348.8,373.4,348.9,372.5,348.9z"/>
	<path class="st1_network-41" d="M353.2,422c-1,0-1.9-0.8-1.9-1.9V403c0-1,0.8-1.9,1.9-1.9c1,0,1.9,0.8,1.9,1.9v17.1&#10;&#9;&#9;C355,421.2,354.2,422,353.2,422z"/>
	<path class="st1_network-41" d="M391.5,422c-1,0-1.9-0.8-1.9-1.8c0,0,0,0,0,0v-17c-0.1-1,0.7-1.9,1.7-2c1-0.1,1.9,0.7,2,1.7c0,0.1,0,0.2,0,0.3&#10;&#9;&#9;v17C393.4,421.2,392.5,422,391.5,422z"/>
</g>
<g id="character-2_network-41">
	<path class="st0_network-41" d="M207.5,342.7c0,30.8-17.8,58.9-45.7,72.1c-4.7,2.3-9.7,4-14.8,5.3c-42.7,10.7-86-15.3-96.7-58.1&#10;&#9;&#9;s15.3-86,58.1-96.7c42.7-10.7,86,15.3,96.7,58.1C206.7,329.7,207.5,336.2,207.5,342.7z"/>
	<path class="st1_network-41" d="M127.8,424.3c-6.6,0-13.1-0.8-19.5-2.3c-5.2-1.3-10.3-3.1-15.2-5.4c-40.8-19.1-58.4-67.7-39.3-108.5&#10;&#9;&#9;s67.7-58.4,108.5-39.3s58.4,67.7,39.3,108.5c-8.1,17.2-21.8,31-39,39.2c-4.9,2.3-9.9,4.1-15.1,5.4&#10;&#9;&#9;C141.1,423.5,134.4,424.3,127.8,424.3z M127.8,264.8c-43,0-77.9,35-77.8,78c0,30.2,17.5,57.6,44.8,70.5c4.6,2.2,9.5,3.9,14.5,5.1&#10;&#9;&#9;c12.3,3,25.1,3,37.4-0.1c5-1.2,9.8-3,14.4-5.2c38.9-18.4,55.5-64.8,37.1-103.7C185.4,282.2,157.9,264.8,127.8,264.8L127.8,264.8z"/>
	<path class="st2_network-41 targetColor" d="M161.9,401.1v13.7c-4.7,2.3-9.7,4-14.8,5.3c-17.8,4.4-36.5,2.6-53.1-5.1v-13.8c0-12.7,10.3-23,23-23l0,0h21.9&#10;&#9;&#9;C151.6,378.1,161.9,388.4,161.9,401.1z" style="fill: rgb(234, 99, 69);"/>
	<path class="st1_network-41" d="M127.8,424.3c-6.6,0-13.1-0.8-19.5-2.3c-5.2-1.3-10.3-3.1-15.2-5.4c-0.7-0.3-1.1-1-1.1-1.7v-13.9&#10;&#9;&#9;c0-13.7,11.1-24.8,24.9-24.8h22c13.7,0,24.8,11.1,24.8,24.8v13.7c0,0.7-0.4,1.4-1.1,1.7c-4.9,2.3-9.9,4.1-15.1,5.4&#10;&#9;&#9;C141.1,423.5,134.4,424.3,127.8,424.3z M95.8,413.8c4.3,1.9,8.8,3.5,13.4,4.6c12.3,3,25.1,3,37.4-0.1c4.6-1.1,9.1-2.7,13.4-4.7&#10;&#9;&#9;v-12.5c0-11.7-9.5-21.1-21.1-21.1h-22c-11.7,0-21.1,9.5-21.1,21.1L95.8,413.8z M161.8,414.8L161.8,414.8z"/>
	<path class="st3_network-41" d="M125.6,280.9c2.4,1.2,4.2,3.1,5.2,5.6c1.7-2.4,4.6-3.8,7.6-3.7c1.7,0,3.4,0.5,4.9,1.4c1.4,0.9,2.2,2.7,3.6,3.5&#10;&#9;&#9;s2.8,0.2,4.4,0.2c2.3,0,4.7,0.4,6.9,1.1c2.2,0.6,4.5,1.5,5.9,3.3c1.6,2.1,1.5,4.7,1.2,7.1c7.6-2.6,9.8,9.1,6.1,13.5&#10;&#9;&#9;c4.5,4.8,3.3,13.6-2.3,17.1c2.1,1.7,1.4,5,0.4,7.5c-1.8,4.8-2.1,9.1-7.5,9.5c-2.9,0.2-5.8,0-8.7,0h-65c1.1,0-3.2-6.6-3.3-6.9&#10;&#9;&#9;c-1.3-3-1.4-6.5-0.1-9.6c-5.1-3.8-5-12.6,0.1-16.3c-3-6.2,0.3-14.7,6.8-17.2c-0.6-4.3,2.7-8.4,6.7-10c4.3-1.8,8.5-1,12.9-0.9&#10;&#9;&#9;c1.1-4,6.1-6.5,10-6.4C122.8,279.8,124.3,280.2,125.6,280.9z"/>
	<path class="st1_network-41" d="M159.1,349c-1,0-2,0-3,0s-1.9,0-2.8,0h-65c-1,0-1.8-0.9-1.8-1.9c0,0,0,0,0,0c0-0.2,0-0.3,0.1-0.5&#10;&#9;&#9;c-0.8-1.7-1.7-3.3-2.7-4.8c-0.3-0.5-0.5-0.8-0.5-0.9c-1.3-3.1-1.6-6.5-0.6-9.8c-4.6-4.9-4.6-12.5,0-17.4&#10;&#9;&#9;c-2.2-6.9,0.7-14.4,7.1-17.9c0-4.8,3.8-8.9,7.9-10.6c3.8-1.6,7.5-1.4,11.2-1.1l1.2,0.1c2-4.1,7.2-6.5,11.3-6.3&#10;&#9;&#9;c1.7,0.1,3.4,0.5,5,1.3l0,0c1.9,1,3.5,2.4,4.8,4.1c2-1.7,4.6-2.5,7.2-2.4c2.1,0.1,4.1,0.6,5.9,1.7c0.8,0.6,1.6,1.3,2.2,2.1&#10;&#9;&#9;c0.4,0.5,0.8,0.9,1.3,1.3c0.6,0.3,1.3,0.3,1.9,0.1c0.5-0.1,1-0.1,1.6-0.1c2.5,0,5,0.4,7.4,1.2c2.4,0.7,5.1,1.7,6.8,3.9&#10;&#9;&#9;c1.3,1.7,1.9,3.9,1.8,6h0.1c2.3,0,4.4,1.2,5.7,3.1c2.3,3.8,2.5,8.5,0.6,12.5c3.7,5.6,2.8,13-2,17.6c0.9,1.9,0.8,4.5-0.4,7.8&#10;&#9;&#9;c-0.3,0.8-0.5,1.6-0.8,2.3c-1.3,3.9-2.6,8-8.3,8.5C161.1,348.9,160.1,349,159.1,349z M90,345.1h63.3c1,0,2,0,2.9,0&#10;&#9;&#9;c1.9,0.1,3.8,0.1,5.6,0c3.1-0.2,3.8-2,5.1-5.9c0.3-0.8,0.5-1.6,0.8-2.4c0.6-1.6,1.4-4.4,0.1-5.4c-0.8-0.7-0.9-1.8-0.2-2.6&#10;&#9;&#9;c0.1-0.1,0.3-0.3,0.4-0.4c4.4-3.2,5.5-9.3,2.3-13.7c-0.1-0.2-0.3-0.4-0.4-0.6c-0.6-0.7-0.7-1.8-0.1-2.5c1.8-2.1,1.8-6.8,0.1-9.3&#10;&#9;&#9;c-0.9-1.4-2.6-1.9-4.1-1.2c-0.6,0.2-1.3,0.1-1.8-0.3c-0.5-0.4-0.8-1-0.7-1.7c0.3-2.1,0.4-4.2-0.8-5.7s-3.1-2.1-4.9-2.6&#10;&#9;&#9;c-2-0.7-4.2-1-6.3-1c-0.4,0-0.8,0.1-1.2,0.1c-1.4,0.3-2.9,0.1-4.1-0.5c-0.9-0.6-1.8-1.3-2.4-2.2c-0.4-0.5-0.8-0.9-1.3-1.3&#10;&#9;&#9;c-1.2-0.7-2.6-1.1-4-1.1c-2.4-0.1-4.6,1-6,2.9c-0.6,0.9-1.7,1.1-2.6,0.5c-0.3-0.2-0.5-0.5-0.7-0.9c-0.8-2-2.4-3.6-4.3-4.6&#10;&#9;&#9;c-1.1-0.5-2.3-0.9-3.5-0.9c-3.2-0.1-7.3,2-8.1,5c-0.2,0.9-1,1.4-1.9,1.4c-0.9,0-1.8-0.1-2.7-0.1c-3.3-0.2-6.5-0.4-9.5,0.9&#10;&#9;&#9;s-6.1,4.5-5.5,8c0.1,0.9-0.4,1.7-1.2,2c-5.6,2.5-8.2,9-5.8,14.7c0.4,0.8,0.2,1.8-0.6,2.3c-3.7,3.1-4.1,8.7-0.9,12.3&#10;&#9;&#9;c0.3,0.3,0.5,0.6,0.8,0.8c0.7,0.5,0.9,1.4,0.6,2.2c-1.1,2.6-1,5.6,0.1,8.1l0,0c0,0,0.1,0.2,0.3,0.4C88.1,341.5,89.1,343.3,90,345.1&#10;&#9;&#9;z"/>
	<path class="st4_network-41" d="M122.4,373.7H134l0,0v8.9c0,1.5-1.2,2.6-2.6,2.6h0h-6.3c-1.5,0-2.6-1.2-2.6-2.6l0,0L122.4,373.7L122.4,373.7z"/>
	<path class="st1_network-41" d="M129.1,387.1h-1.7c-3.7,0-6.8-3-6.8-6.8l0,0v-6.6c0-1,0.8-1.9,1.8-1.9c0,0,0,0,0,0H134c1,0,1.9,0.8,1.9,1.9&#10;&#9;&#9;v6.6C135.9,384.1,132.8,387.2,129.1,387.1C129.1,387.2,129.1,387.1,129.1,387.1z M124.3,375.6v4.8c0,1.7,1.3,3,3,3h1.7&#10;&#9;&#9;c1.7,0,3-1.4,3.1-3v-4.8H124.3z"/>
	<ellipse class="st4_network-41" cx="97.1" cy="343.7" rx="10.6" ry="9.7"/>
	<path class="st1_network-41" d="M97.1,355.2c-6.9,0-12.4-5.2-12.4-11.5s5.6-11.5,12.4-11.5s12.4,5.2,12.4,11.5S103.9,355.2,97.1,355.2z&#10;&#9;&#9; M97.1,335.9c-4.8,0-8.7,3.5-8.7,7.8s3.9,7.8,8.7,7.8s8.7-3.5,8.7-7.8S101.9,335.9,97.1,335.9z"/>
	<ellipse class="st4_network-41" cx="158.7" cy="343.7" rx="10.6" ry="9.7"/>
	<path class="st1_network-41" d="M158.7,355.2c-6.9,0-12.4-5.2-12.4-11.5s5.6-11.5,12.4-11.5s12.4,5.2,12.4,11.5S165.6,355.2,158.7,355.2z&#10;&#9;&#9; M158.7,335.9c-4.8,0-8.7,3.5-8.7,7.8s3.9,7.8,8.7,7.8s8.7-3.5,8.7-7.8S163.5,335.9,158.7,335.9z"/>
	<path class="st4_network-41" d="M128.2,375.2c-15.8,0-29.4-10.9-33-26.2c-1.4-6.3-0.8-11.8-0.2-18.2c0-1.2,0.3-2.4,0.8-3.5&#10;&#9;&#9;c-0.4,0.6,7.1-1,7.8-1.4c2.9-1.6,4.9-4.6,5.2-8c2,2,5.5,1.9,8,0.5s4.2-3.9,5.6-6.3c1,3.3,3.8,5.8,7.1,6.5c3.3,0.6,6.7-0.6,9-3.1&#10;&#9;&#9;c-0.1,3.7,2.6,6.4,6.4,6.8c2.9,0.2,5.8-1.1,7.4-3.5c0.2,4.5,4.1,8,8.6,7.8c0.5,0,1-0.1,1.5-0.2c0.1,2.7,0.6,5.5,0.4,8.2&#10;&#9;&#9;c-0.2,2.3-0.8,4.6-0.8,6.9C162,360.1,146.9,375.2,128.2,375.2z"/>
	<path class="st1_network-41" d="M128.2,377.1c-16.6,0-31-11.5-34.8-27.6c-1.5-6.3-1-11.7-0.4-18l0.1-0.8c0-1.4,0.4-2.9,1-4.2l0,0&#10;&#9;&#9;c0.5-0.8,1.5-1.2,2.3-0.8c2.1-0.3,4.2-0.7,6.3-1.3c2.4-1.3,3.9-3.8,4.2-6.5c0.1-1,0.9-1.8,2-1.7c0.4,0,0.9,0.2,1.2,0.5&#10;&#9;&#9;c1.5,1.4,4.1,1.2,5.8,0.2c2.2-1.2,3.7-3.6,4.9-5.7c0.4-0.6,1.1-1,1.8-0.9c0.7,0.1,1.3,0.6,1.6,1.3c0.8,2.6,3,4.6,5.7,5.2&#10;&#9;&#9;c2.7,0.5,5.5-0.5,7.4-2.6c0.7-0.7,1.9-0.8,2.6,0c0.4,0.4,0.6,0.9,0.6,1.4c-0.1,2.7,1.8,4.6,4.7,4.8c2.3,0.2,4.4-0.9,5.7-2.7&#10;&#9;&#9;c0.4-0.7,1.2-1,2-0.8c0.8,0.2,1.3,0.9,1.4,1.7c0.2,3.5,3.1,6.2,6.6,6c0.4,0,0.8-0.1,1.2-0.2c0.5-0.1,1.1,0,1.6,0.3&#10;&#9;&#9;c0.4,0.3,0.7,0.9,0.7,1.4c0,1,0.1,1.9,0.2,2.9c0.2,1.8,0.3,3.7,0.2,5.5c-0.1,1-0.2,2-0.4,3c-0.2,1.2-0.4,2.5-0.4,3.8&#10;&#9;&#9;C163.9,361.1,147.9,377.1,128.2,377.1z M97,329.3c-0.1,0.6-0.2,1.1-0.2,1.7l-0.1,0.8c-0.6,5.9-1,11.1,0.3,16.8&#10;&#9;&#9;c4,17.2,21.1,28,38.3,24c14.6-3.3,24.9-16.3,24.8-31.3c0-1.5,0.2-2.9,0.5-4.4c0.1-0.9,0.3-1.8,0.4-2.7c0.1-1.6,0-3.3-0.2-4.9&#10;&#9;&#9;c0-0.4-0.1-0.7-0.1-1.1c-2.2,0-4.4-0.7-6.2-2c-1.4-1-2.5-2.4-3.2-4c-1.9,1.3-4.2,2-6.6,1.8c-3.3-0.1-6.2-2.2-7.5-5.2&#10;&#9;&#9;c-2.4,1.5-5.3,2.1-8.1,1.5c-2.8-0.6-5.3-2.2-7-4.6c-1.2,1.7-2.7,3.1-4.5,4.2c-2.3,1.3-5.1,1.6-7.6,0.8c-1,2.8-3,5.2-5.6,6.7&#10;&#9;&#9;C102.1,328.4,99.5,329,97,329.3z"/>
	<path class="st1_network-41" d="M128,348.9c-1.1,0-2.1-0.1-3.2-0.3c-1-0.2-1.7-1.1-1.5-2.2c0.2-1,1.1-1.7,2.2-1.5l0,0c1.2,0.2,2.4,0.3,3.6,0.2&#10;&#9;&#9;c-0.6-2.2-1.4-4.3-2.5-6.2c-0.5-0.9-0.1-2,0.8-2.5c0.9-0.5,2-0.1,2.5,0.8c1.8,3.4,3.6,7.8,2.7,10c-0.3,0.7-1,1.3-1.7,1.5&#10;&#9;&#9;C129.9,348.8,128.9,348.9,128,348.9z"/>
	<path class="st1_network-41" d="M108.7,422c-1,0-1.9-0.8-1.9-1.9V403c0-1,0.8-1.9,1.9-1.9s1.9,0.8,1.9,1.9v17.1&#10;&#9;&#9;C110.6,421.2,109.8,422,108.7,422z"/>
	<path class="st1_network-41" d="M147.1,422c-1,0-1.9-0.8-1.9-1.9v-17c0-1,0.8-1.9,1.9-1.9s1.9,0.8,1.9,1.9v17C148.9,421.2,148.1,422,147.1,422&#10;&#9;&#9;z"/>
</g>
<g id="character-1_network-41">
	<path class="st0_network-41" d="M329.7,157.3c0,44-35.7,79.7-79.8,79.7c-6.6,0-13.2-0.8-19.7-2.5c-5.2-1.3-10.2-3.1-15-5.4&#10;&#9;&#9;c-39.7-19.1-56.3-66.8-37.2-106.5S245,66.3,284.6,85.5C312.2,98.8,329.7,126.7,329.7,157.3L329.7,157.3z"/>
	<path class="st1_network-41" d="M250,238.9c-6.8,0-13.6-0.8-20.1-2.5c-5.3-1.3-10.4-3.2-15.3-5.6c-40.6-19.6-57.6-68.4-38-109&#10;&#9;&#9;s68.4-57.6,109-38s57.6,68.4,38,109c-8.1,16.8-21.7,30.3-38.6,38.3C274,236.2,262.1,238.9,250,238.9z M250,79.4&#10;&#9;&#9;c-43,0-77.9,34.9-77.9,77.9s34.9,77.9,77.9,77.9c43,0,77.9-34.9,77.9-77.9c0,0,0,0,0,0C327.8,114.3,293,79.5,250,79.4z"/>
	<path class="st3_network-41" d="M297.9,186.7c0.2-0.7,0.3-1.5,0.4-2.2c0.3-3.3-0.6-6.5-1.3-9.6c-2.8-11.3-4.2-22.8-4.4-34.4&#10;&#9;&#9;c0-9.3-2-18.8-6.7-26.8c-10.6-18.1-39.1-26.4-51.4-10.9c0,0-8.8-2.8-17.1,7.1c-7.8,9.3-7.4,22.7-7.8,33.8&#10;&#9;&#9;c-0.4,11.9-2.8,21.7-6.6,32.8c-1.1,3.3-1.4,6.8-0.8,10.3H297.9z"/>
	<path class="st1_network-41" d="M297.9,188.6h-95.8c-0.9,0-1.7-0.7-1.8-1.6c-0.7-3.7-0.3-7.6,0.9-11.2c4.3-12.3,6.2-21.7,6.6-32.2&#10;&#9;&#9;c0-1,0.1-2.1,0.1-3.2c0.3-10.7,0.6-22.8,8.1-31.7c7.2-8.6,14.9-8.4,17.9-8c5-5.7,12.5-8.5,21.3-7.8c12.9,0.9,25.9,8.9,32.3,19.8&#10;&#9;&#9;c4.5,7.7,6.9,17.2,7,27.7c0.2,11.5,1.6,22.9,4.4,34l0.2,0.7c0.9,3.1,1.3,6.3,1.2,9.5c-0.1,0.8-0.2,1.7-0.4,2.5&#10;&#9;&#9;C299.5,188,298.7,188.6,297.9,188.6z M203.7,184.8h92.6c0-0.2,0-0.3,0.1-0.5c0.1-2.8-0.3-5.7-1.1-8.4l-0.2-0.7&#10;&#9;&#9;c-2.8-11.4-4.3-23.1-4.5-34.8c0-9.8-2.3-18.8-6.5-25.8c-5.9-10-17.7-17.2-29.4-18c-8-0.6-14.7,2.1-18.9,7.4c-0.5,0.6-1.3,0.8-2,0.6&#10;&#9;&#9;c-0.3-0.1-7.8-2.2-15.1,6.5c-6.6,7.9-7,19.4-7.2,29.4c0,1.1-0.1,2.2-0.1,3.2c-0.4,11-2.3,20.6-6.7,33.3&#10;&#9;&#9;C203.8,179.6,203.4,182.2,203.7,184.8L203.7,184.8z"/>
	<path class="st2_network-41 targetColor" d="M284.1,215.3v14c-16.8,7.9-35.8,9.8-53.8,5.2c-5.2-1.3-10.2-3.1-15-5.4v-13.8c0-12.8,10.4-23.3,23.2-23.3&#10;&#9;&#9;c0,0,0,0,0,0h22.2C273.7,192,284.1,202.5,284.1,215.3C284.1,215.3,284.1,215.3,284.1,215.3L284.1,215.3z" style="fill: rgb(234, 99, 69);"/>
	<path class="st1_network-41" d="M250,238.9c-6.8,0-13.6-0.8-20.1-2.5c-5.3-1.3-10.4-3.2-15.3-5.6c-0.6-0.3-1-1-1.1-1.7v-13.8&#10;&#9;&#9;c0-13.9,11.2-25.1,25.1-25.1c0,0,0,0,0.1,0h22.2c13.9,0,25.1,11.2,25.2,25.1c0,0,0,0,0,0v14c0,0.7-0.4,1.4-1.1,1.7&#10;&#9;&#9;C274,236.2,262.1,238.9,250,238.9z M217.2,227.9c4.4,2,8.9,3.6,13.6,4.8c17.2,4.4,35.3,2.8,51.5-4.6v-12.8&#10;&#9;&#9;c0-11.8-9.5-21.4-21.4-21.4c0,0,0,0-0.1,0h-22.2c-11.8,0-21.4,9.6-21.4,21.4V227.9z M284.1,229.3L284.1,229.3z"/>
	<path class="st1_network-41" d="M230.3,236.4c-1,0-1.9-0.8-1.9-1.9l0,0v-17.3c0-1,0.8-1.9,1.9-1.9s1.9,0.8,1.9,1.9v17.3&#10;&#9;&#9;C232.2,235.6,231.4,236.4,230.3,236.4L230.3,236.4z"/>
	<path class="st1_network-41" d="M269.1,236.6c-1,0-1.9-0.8-1.9-1.9v-17.4c0-1,0.8-1.9,1.9-1.9c1,0,1.9,0.8,1.9,1.9v17.4&#10;&#9;&#9;C271,235.7,270.2,236.6,269.1,236.6C269.1,236.6,269.1,236.6,269.1,236.6z"/>
	<path class="st4_network-41" d="M245.3,188.6h11.2l0,0v8.6c0,1.4-1.1,2.6-2.6,2.6h-6.1c-1.4,0-2.6-1.1-2.6-2.6V188.6L245.3,188.6z"/>
	<path class="st1_network-41" d="M251.8,201.7h-1.7c-3.7,0-6.6-3-6.6-6.6v-6.4c0-1,0.8-1.9,1.9-1.9l0,0h11.2c1,0,1.9,0.8,1.9,1.9v6.4&#10;&#9;&#9;C258.4,198.7,255.4,201.7,251.8,201.7z M247.2,190.5v4.6c0,1.6,1.3,2.9,2.9,2.9h1.7c1.6,0,2.9-1.3,2.9-2.9c0,0,0,0,0,0v-4.6H247.2z&#10;&#9;&#9;"/>
	<ellipse class="st4_network-41" cx="218.9" cy="159.5" rx="10.9" ry="9.4"/>
	<path class="st1_network-41" d="M218.9,170.8c-7,0-12.7-5-12.7-11.2s5.7-11.2,12.7-11.2s12.8,5,12.8,11.2S225.9,170.8,218.9,170.8z M218.9,152&#10;&#9;&#9;c-5,0-9,3.4-9,7.5s4,7.5,9,7.5s9-3.4,9-7.5S223.9,152,218.9,152z"/>
	<ellipse class="st4_network-41" cx="282.4" cy="159.5" rx="10.9" ry="9.4"/>
	<path class="st1_network-41" d="M282.4,170.8c-7,0-12.7-5-12.7-11.2s5.7-11.2,12.7-11.2s12.8,5,12.8,11.2S289.4,170.8,282.4,170.8z M282.4,152&#10;&#9;&#9;c-5,0-9,3.4-9,7.5s4,7.5,9,7.5s9-3.4,9-7.5S287.4,152,282.4,152z"/>
	<path class="st4_network-41" d="M270.9,131.7L260.3,118c0,0-2.4,8.4-3.9,13.6l-16.7-0.1l-4-12.2l-4.6,12.2h-13v25.7&#10;&#9;&#9;c0,18.1,14.7,32.8,32.8,32.8l0,0l0,0c18.1,0,32.8-14.7,32.8-32.8l0,0v-25.5L270.9,131.7z"/>
	<path class="st1_network-41" d="M250.9,192c-19.1,0-34.7-15.5-34.7-34.7v-25.8c0-1,0.8-1.9,1.9-1.9l0,0l0,0h11.7l4.2-11c0.3-0.7,1-1.2,1.8-1.2&#10;&#9;&#9;c0.8,0,1.5,0.5,1.7,1.3l3.5,11h14c1.5-5.2,3.5-12.3,3.5-12.3c0.2-0.7,0.7-1.2,1.4-1.3c0.7-0.1,1.4,0.1,1.8,0.7l10.1,12.9h12&#10;&#9;&#9;c1,0,1.9,0.8,1.9,1.8v0v25.5C285.7,176.4,270.2,192,250.9,192C251,192,251,192,250.9,192z M220,133.4v23.9&#10;&#9;&#9;c-0.8,17.1,12.5,31.6,29.6,32.3s31.6-12.5,32.3-29.6c0-0.9,0-1.8,0-2.7v-23.7h-11c-0.6,0-1.1-0.3-1.5-0.7l-8.4-10.8l-2.9,10.1&#10;&#9;&#9;c-0.3,0.8-1,1.3-1.8,1.4h-16.7c-0.8,0-1.5-0.5-1.8-1.3l-2.4-7.3l-2.8,7.2c-0.3,0.7-1,1.2-1.7,1.2l0,0L220,133.4z"/>
	<path class="st1_network-41" d="M250.8,164.6c-1,0-2.1-0.1-3.1-0.3c-1-0.1-1.7-1.1-1.6-2.1c0.1-1,1.1-1.7,2.1-1.6c0.1,0,0.1,0,0.2,0&#10;&#9;&#9;c1.1,0.2,2.3,0.2,3.4,0.2c-0.6-2.1-1.4-4.1-2.4-6c-0.5-0.9-0.1-2,0.8-2.5c0.9-0.5,2-0.1,2.5,0.8c1.7,3.3,3.6,7.6,2.6,9.7&#10;&#9;&#9;c-0.3,0.7-0.9,1.3-1.7,1.4C252.6,164.5,251.7,164.6,250.8,164.6z"/>
</g>
<g id="lines_network-41">
	<path class="st1_network-41" d="M167.1,275.5c-0.4,0-0.7-0.1-1-0.3c-0.9-0.6-1.1-1.7-0.5-2.6l34.7-52.5c0.6-0.8,1.8-1,2.6-0.4&#10;&#9;&#9;c0.8,0.6,1,1.6,0.5,2.5l-34.7,52.5C168.3,275.2,167.7,275.5,167.1,275.5z"/>
	<path class="st1_network-41" d="M332.9,275.5c-0.6,0-1.2-0.3-1.5-0.8l-34.7-52.5c-0.5-0.9-0.2-2,0.6-2.6c0.8-0.5,1.9-0.3,2.5,0.5l34.7,52.5&#10;&#9;&#9;c0.6,0.9,0.3,2-0.5,2.6C333.6,275.4,333.3,275.5,332.9,275.5z"/>
</g>
</svg>