<!DOCTYPE svg PUBLIC "-//W3C//DTD SVG 1.1//EN" "http://www.w3.org/Graphics/SVG/1.1/DTD/svg11.dtd">
<!-- Uploaded to: SVG Repo, www.svgrepo.com, Transformed by: SVG Repo Mixer Tools -->
<svg width="172px" height="172px" viewBox="0 0 24.00 24.00" xmlns="http://www.w3.org/2000/svg" fill="#cc6d00" stroke="#cc6d00" stroke-width="0.00024000000000000003">
<g id="SVGRepo_bgCarrier" stroke-width="0"/>
<g id="SVGRepo_tracerCarrier" stroke-linecap="round" stroke-linejoin="round" stroke="#CCCCCC" stroke-width="3.6480000000000006"/>
<g id="SVGRepo_iconCarrier"> <g> <path fill="none" d="M0 0h24v24H0z"/> <path d="M21 11.646V21a1 1 0 0 1-1 1H4a1 1 0 0 1-1-1v-9.354A3.985 3.985 0 0 1 2 9V3a1 1 0 0 1 1-1h18a1 1 0 0 1 1 1v6c0 1.014-.378 1.94-1 2.646zM14 9a1 1 0 0 1 2 0 2 2 0 1 0 4 0V4H4v5a2 2 0 1 0 4 0 1 1 0 1 1 2 0 2 2 0 1 0 4 0z"/> </g> </g>
</svg>