<!DOCTYPE svg PUBLIC "-//W3C//DTD SVG 1.1//EN" "http://www.w3.org/Graphics/SVG/1.1/DTD/svg11.dtd">
<!-- Uploaded to: SVG Repo, www.svgrepo.com, Transformed by: SVG Repo Mixer Tools -->
<svg fill="#b64b11" height="800px" width="800px" version="1.1" id="Layer_1" xmlns="http://www.w3.org/2000/svg" xmlns:xlink="http://www.w3.org/1999/xlink" viewBox="0 0 512 512" xml:space="preserve" stroke="#b64b11">
<g id="SVGRepo_bgCarrier" stroke-width="0"/>
<g id="SVGRepo_tracerCarrier" stroke-linecap="round" stroke-linejoin="round"/>
<g id="SVGRepo_iconCarrier"> <g> <g> <g> <path d="M468.544,372.48L447.019,80.064C443.371,35.179,403.819,0,356.949,0H155.051c-46.869,0-86.421,35.179-90.069,80.235 L43.456,372.48c-13.333,9.515-22.123,25.045-22.123,42.645v44.437c0,28.907,23.531,52.437,52.437,52.437h364.459 c28.907,0,52.437-23.531,52.437-52.437v-44.437C490.667,397.525,481.877,381.995,468.544,372.48z M256,85.333 c47.061,0,85.333,39.36,85.333,87.723c0,28.267-6.997,49.365-21.333,64.085V256v42.667v64h-42.667v-64h-42.667v64H192v-64V256 v-18.859c-14.336-14.72-21.333-35.819-21.333-64.085C170.667,124.693,208.939,85.333,256,85.333z M448,459.563 c0,5.397-4.373,9.771-9.771,9.771H73.771c-5.397,0-9.771-4.373-9.771-9.771v-44.437c0-5.397,4.373-9.792,9.771-9.792H192h128 h118.229c5.397,0,9.771,4.395,9.771,9.792V459.563z"/> <path d="M225.833,210.189l8.832,6.379v39.445h42.667v-39.445l8.832-6.379c5.355-3.883,12.501-11.968,12.501-37.141 c0-24.832-19.136-45.035-42.667-45.035c-23.509,0-42.667,20.203-42.667,45.035C213.331,198.221,220.478,206.306,225.833,210.189z "/> </g> </g> </g> </g>
</svg>